PathFileType	3	(X/Y/Z)	D:\Jess\PFP\Labelled\PA09\20250730\SRRun01.trc
DataRate	CameraRate	NumFrames	NumMarkers	Units	OrigDataRate	OrigDataStartFrame	OrigNumFrames
250.0	250.0	6	37	mm	250.0	36875	2501
Frame#	Time	C7			T10			CLAV			LSHO			RSHO			LASIS			RASIS			LPSIS			RPSIS			LILCR			RILCR			LGTR			LTHI			LLTHI			LLEP			LMEP			LPSH			LLSH			LDSH			LLMAL			LMMAL			LTOE			L5TH			LHEE			RGTR			RTHI			RLTHI			RLEP			RMEP			RPSH			RLSH			RDSH			RLMAL			RMMAL			RTOE			R5TH			RHEE			
		X1	Y1	Z1	X2	Y2	Z2	X3	Y3	Z3	X4	Y4	Z4	X5	Y5	Z5	X6	Y6	Z6	X7	Y7	Z7	X8	Y8	Z8	X9	Y9	Z9	X10	Y10	Z10	X11	Y11	Z11	X12	Y12	Z12	X13	Y13	Z13	X14	Y14	Z14	X15	Y15	Z15	X16	Y16	Z16	X17	Y17	Z17	X18	Y18	Z18	X19	Y19	Z19	X20	Y20	Z20	X21	Y21	Z21	X22	Y22	Z22	X23	Y23	Z23	X24	Y24	Z24	X25	Y25	Z25	X26	Y26	Z26	X27	Y27	Z27	X28	Y28	Z28	X29	Y29	Z29	X30	Y30	Z30	X31	Y31	Z31	X32	Y32	Z32	X33	Y33	Z33	X34	Y34	Z34	X35	Y35	Z35	X36	Y36	Z36	X37	Y37	Z37	

1876	147.496	1156.11391637064	1391.970816440481	-352.4916086608284	1035.633326617045	1164.665819252153	-349.8903226246475	1263.108722847249	1266.551144480208	-315.8650418609886	1225.530456860857	1366.744843535356	-491.5602007470061	1151.738600429685	1371.579309674993	-187.6914549653632	1136.090549749234	939.1618372208985	-439.7455504000407	1116.489101008276	945.284238014132	-219.1377938808904	985.9503450623261	1001.449315268512	-346.5249294546195	981.9620398941703	999.5723729411042	-313.2057116778686	1103.349644126532	998.041528291472	-472.9562135298711	1084.896927220934	1009.028550426216	-195.8025121096424	1081.918777893599	836.7296065196642	-487.806878460426	1129.668399939955	660.1251571884885	-432.6987227325192	1023.25898913942	589.3037932801175	-466.1155725334301	984.9199780667211	463.1390736204862	-447.3814909587111	nan	nan	nan	996.5245012095837	357.4796942644107	-393.9609070422751	880.9607590541385	314.5296879392394	-440.59504422461	874.3133373409746	206.8797580468599	-375.9605415558678	771.9666707312966	143.0793968690575	-399.5256345323787	nan	nan	nan	893.8958080573246	61.10069324930405	-380.798507005746	865.4144982896945	50.79863099590454	-423.387530198103	685.952262163401	138.7053333046146	-356.5122532091767	1064.696611332032	839.1537341828896	-166.5882151045085	1216.911319711003	716.5465772726849	-241.8817830811792	1174.35049927691	624.3769494135081	-185.3837229829249	1192.963032436927	503.0183430689865	-210.2734169200591	nan	nan	nan	1194.163341564148	412.8241007075258	-265.7740833282823	1058.859188261433	381.8951112699861	-209.3499968216594	1037.631192875261	282.482160540269	-261.8138323503347	912.8906483772374	236.6139334390296	-237.3542160228233	nan	nan	nan	1012.580497261652	119.5070923216297	-220.6796170341335	971.2461650465355	114.6889582981703	-182.7640344277456	843.4018945843637	257.0533829918045	-289.0189485821862	
1877	147.5	1156.474862826811	1395.001898276776	-352.3125293460054	1036.569239827779	1167.31737201397	-351.1654004489722	1263.370627814262	1270.218438071681	-314.2866851915671	1227.526626623042	1369.797537498407	-490.5771905179265	1150.051531315803	1374.831716711651	-187.9992896407806	1137.035371305115	941.0636116410551	-439.6880335344068	1116.916052715001	948.941869661178	-219.7076271281467	986.9886799063827	1004.685938781733	-347.3252139777792	982.8044035550325	1003.052643655355	-313.9569830795618	1105.404331674418	1000.5948781221	-472.6980295399036	1085.326969495709	1012.720440853505	-196.2793157433046	1081.767681668377	838.8723454793761	-487.6174164514314	1126.284785589424	661.4571456953895	-431.6254801813409	1018.926064801386	592.2420605572215	-466.390975919735	977.6730466977031	466.753026478041	-447.7910520847797	nan	nan	nan	988.4047733229288	360.7428677556197	-394.6997755220036	872.5448499175005	318.5454464115076	-441.0752949911453	865.954868712824	210.3916234386928	-376.9691935758424	763.6762518617451	146.7663590486429	-400.2110702608189	nan	nan	nan	883.2372241751848	61.18298684024171	-381.1054678845765	854.4197455482094	51.19985266773519	-423.661213605376	677.8001491724674	144.413627189983	-357.1685430500029	1065.689561229998	843.7357645533714	-166.212698015391	1217.894194008511	722.215049313255	-242.5311687763814	1176.682533071199	629.5847409900091	-185.1463383792801	1195.538488867252	507.2165572085607	-210.0870445080852	nan	nan	nan	1199.55949054784	416.6576430324577	-265.7720319947949	1065.487089711568	380.0775710109909	-209.4097637272385	1048.175650571514	280.1677425154064	-262.3896800475121	925.2359020707241	229.1136409288129	-238.3003269230018	nan	nan	nan	1029.90599727536	116.4291618516073	-221.5805595976209	988.6358010532417	109.6150187490868	-183.800236056974	855.0405587085124	246.7078689443654	-290.1148301581747	
1878	147.504	1156.883314677865	1397.962692122517	-352.1141656602745	1037.525465412557	1169.917986621618	-352.3688693937321	1263.62836792895	1273.829133596607	-312.7536177924324	1229.47876343637	1372.787041624757	-489.5861425803088	1148.484444712962	1378.006452184478	-188.306274373313	1137.996379155863	942.8896250185338	-439.6145289526309	1117.369743177419	952.5035496132424	-220.243076513948	988.0728344445615	1007.893871959289	-348.1218542802843	983.6963088080822	1006.50507710496	-314.7168265955519	1107.447367922531	1003.096282227997	-472.4244345103101	1085.790551246408	1016.332429702721	-196.7118399298454	1081.701067511357	840.9917843480684	-487.4354771172934	1123.020831645969	662.8296933638552	-430.6314302969968	1014.752946600109	595.2215839039006	-466.6843719197877	970.6327778086722	470.4554026524349	-448.2186680566003	nan	nan	nan	980.5189827818073	364.1096573044363	-395.4832586119293	864.3731211432597	322.6330802980528	-441.596940435489	857.8869760353193	213.9791065170818	-378.0453505599568	755.6558023054318	150.5223046683071	-400.9820243045495	nan	nan	nan	872.7086204097534	61.29844234154648	-381.4696579827672	843.5402408146085	51.64921203066923	-423.9862724517516	669.9937763356663	150.3136102550005	-357.9037377604419	1066.631636480343	848.2609949695239	-165.8417937346703	1218.8084284201	727.719847093898	-243.1891086357119	1178.829257527555	634.67467865205	-184.9364204608609	1197.824839325095	511.2004990593211	-209.8867155900388	nan	nan	nan	1204.697475327592	420.3526485958991	-265.7254215672378	1072.117268526818	378.1225747477559	-209.4567107634417	1058.792214909892	277.8659412223353	-262.9530785003391	937.9035773737368	221.652098963487	-239.2499563447069	nan	nan	nan	1047.340435030705	113.6051631239244	-222.4644044390639	1006.234368202119	104.7972001818898	-184.831194711265	867.1340620708162	236.3831540407776	-291.2314012804604	
1879	147.508	1157.33700680481	1400.842698742684	-351.8979575404914	1038.495854469157	1172.459602275088	-353.4965317942794	1263.880541215466	1277.365967056532	-311.2672426192128	1231.387020371325	1375.699198670427	-488.5901137472204	1147.039060723952	1381.094195740763	-188.6055324666207	1138.972436579606	944.6365772915389	-439.5268134818352	1117.844089830497	955.952411002365	-220.7414419343664	989.195282930027	1011.058367772409	-348.9156639339382	984.630916137375	1009.913089192694	-315.4860116779784	1109.469938238945	1005.53406584348	-472.136605136195	1086.277243139069	1019.847900703891	-197.0973212055287	1081.710800248409	843.075460157531	-487.2702893018936	1119.878044350097	664.2275396411536	-429.7425698756322	1010.72441878139	598.2326863184539	-466.9892619174516	963.8037125590008	474.2285503857304	-448.658499520013	nan	nan	nan	972.8741698607628	367.5613752896466	-396.2974929110296	856.4564662676786	326.7715451859487	-442.1567271178397	850.1064398786773	217.6253501815072	-379.177512569059	747.8984157000175	154.3364953613938	-401.8350818371652	nan	nan	nan	862.3138745683812	61.45997828082288	-381.8913881681995	832.779534880149	52.15995062762459	-424.3585443826565	662.5311807506728	156.3844312117496	-358.7182020573117	1067.512206243132	852.7045519296105	-165.4801142594374	1219.661049673752	733.0342773535418	-243.8371066762591	1180.77212639289	639.6147279131766	-184.7641098737021	1199.822642566447	514.9530227343774	-209.6805147891122	nan	nan	nan	1209.576373814267	423.8966231684952	-265.6343284892815	1078.751670314243	376.0411497190311	-209.4913045151718	1069.473941721856	275.5912381718839	-263.4982835057548	950.8908842895536	214.2579325849289	-240.1906361735305	nan	nan	nan	1064.869220536257	111.0529503918331	-223.3342329013991	1024.029578829535	100.2551532200351	-185.8593352131732	879.6778365346819	226.1200498458546	-292.3486916658314	
1880	147.512	1157.831630889745	1403.631831478181	-351.6654799314318	1039.474201452883	1174.934551094927	-354.5452787379961	1264.126061632485	1280.812168950265	-309.8285684546401	1233.250569807473	1378.520631982401	-487.5919043971335	1145.716283880644	1384.086241407227	-188.8905024464602	1139.962861515288	946.3022318415243	-439.4267728425655	1118.333383092518	959.272818975818	-221.2014901450713	990.3480572104756	1014.164394043734	-349.7071518845149	985.6009003811821	1013.259583371129	-316.2645720976695	1111.464737301882	1007.897353674306	-471.8355875240721	1086.777552643221	1023.250463360546	-197.4346135882524	1081.789316524971	845.112077525225	-487.1305637855198	1116.857320367658	665.6367081525417	-428.9799327560481	1006.826002859785	601.2662255388915	-467.29856392581	957.1908606275706	478.054388204924	-449.1042764331131	nan	nan	nan	965.4757377417043	371.0791636870824	-397.1264787880768	848.8045856613818	330.9403243130681	-442.7508973582729	842.6056785429216	221.3147652570433	-380.3522649022535	740.3940414045677	158.2003131615873	-402.7653454373131	nan	nan	nan	852.0554116622795	61.68356567262809	-382.3694362688004	822.1408047761174	52.74729769579198	-424.7720120934875	655.4053752184068	162.6046030210996	-359.6112475563312	1068.323063815707	857.04112319444	-165.1325389165349	1220.457199576217	738.1298432713702	-244.4569878093531	1182.491380976823	644.3713724769423	-184.6390344349373	1201.533216068265	518.4583610976699	-209.4766497107573	nan	nan	nan	1214.196780413284	427.2790021292366	-265.4995000894663	1085.389635752324	373.8471683777606	-209.514814692247	1080.2114739109	273.3594503080639	-264.0193497753859	964.1907831236746	206.9615235032057	-241.1104055833719	nan	nan	nan	1082.475655998991	108.7913152688537	-224.1935170840835	1042.006621608641	96.0096681302212	-186.8878216113391	892.6621170573421	215.9600162518095	-293.4473304192791	
1881	147.516	1158.360969474039	1406.320405765755	-351.4184651006273	1040.454251366244	1177.335482836527	-355.5130837227004	1264.364125526211	1284.151655300101	-308.4382559229168	1235.067598876602	1381.238829560689	-486.594129099555	1144.516170783346	1386.974421457699	-189.1550831669847	1140.967266171961	947.8851166122457	-439.316415246761	1118.83225806453	962.450459503913	-221.623388585739	991.522841548309	1017.196752589565	-350.4964654620104	986.5985117017628	1016.527089218668	-317.0517641826158	1113.426145001368	1010.176203356998	-471.5222096125873	1087.28297866307	1026.524081998125	-197.7241290832573	1081.930028780686	847.0914517122969	-487.0240635444849	1113.959262706282	667.0445962573652	-428.3584346384673	1003.045290011041	604.3131692112133	-467.6049895398093	950.8002246443432	481.9142633186459	-449.5496353651665	nan	nan	nan	958.3276109684473	374.6439870261493	-397.9527432057432	841.425896562762	335.1197253742436	-443.3753630007982	835.373083732312	225.0333219895358	-381.554761194886	733.1296119617889	162.1074250088061	-403.7665743689138	nan	nan	nan	841.9342298933955	61.9879725144288	-382.9009539153968	811.6269589062506	53.42821760360646	-425.219035273086	648.6041506408006	168.9523203446437	-360.5811174965209	1069.058407435596	861.245142563393	-164.8041320312523	1221.199707802986	742.9761307786194	-245.0314982229741	1183.966824085958	648.9100666585947	-184.5696510742684	1202.959056833047	521.7021197743925	-209.2831185030592	nan	nan	nan	1218.560891678068	430.4910977070303	-265.3223851308267	1092.0278140053	371.5570754536587	-209.5293971455543	1090.992901206187	271.1875058814293	-264.5102942786751	977.791526727082	199.7949603834626	-241.9982594820175	nan	nan	nan	1100.140269552198	106.8397841834557	-225.0458679243675	1060.147445499025	92.08274883227196	-187.9203250568698	906.0717461177804	205.9448652824067	-294.5093348302621	
